<?xml version="1.0" standalone="no"?><!DOCTYPE svg PUBLIC "-//W3C//DTD SVG 1.1//EN" "http://www.w3.org/Graphics/SVG/1.1/DTD/svg11.dtd"><svg t="1528365752892" class="icon" style="" viewBox="0 0 1024 1024" version="1.1" xmlns="http://www.w3.org/2000/svg" p-id="2486" xmlns:xlink="http://www.w3.org/1999/xlink" width="32" height="32"><defs><style type="text/css"></style></defs><path d="M818.463834 329.513806c-21.12104-1.780553-38.120203 7.716752-43.774993 28.494984-3.978614 14.622022-3.308349 30.726815-3.338025 46.170552-0.234337 122.535801 0.019443 245.073648-0.206708 367.609449-0.118704 64.266699-9.815553 73.821309-75.745125 74.074066-91.470271 0.350994-182.942589 0.11154-274.413883 0.085958-37.968753-0.010233-75.990718 1.128707-113.889887-0.531096-39.872103-1.746784-51.571562-14.626115-53.769624-54.027497-0.671289-12.046361-0.202615-24.156166-0.204661-36.238342-0.01228-120.810506 0.229221-241.621013-0.146333-362.431519-0.137123-43.958164-14.041808-63.374376-43.140543-63.47466-29.208229-0.099261-42.382273 18.336624-42.510186 63.567781-0.397043 139.794883-0.833995 279.595906 0.154519 419.383626 0.566912 80.107479 41.47767 119.745245 122.553197 120.685663 72.476685 0.840134 144.970766 0.174985 217.45666 0.197498 70.761624 0.021489 141.522224 0.021489 212.283848 0.021489 1.725294 0 3.450589 0.00614 5.176906-0.008186 93.924159-0.784876 131.718951-38.269605 131.9758-132.318608 0.36532-132.892683 0.163729-265.784342 0.014326-398.677025-0.01535-13.758352-0.032746-27.731598-2.317789-41.222867C851.314009 341.320713 837.225129 331.095837 818.463834 329.513806z" p-id="2487" fill="#86c6ff"></path><path d="M879.064027 177.462784c-39.520085-2.484587-79.342046-2.117221-118.952182-0.704035-44.200688 1.576915-81.3334-9.110495-107.9762-47.437405-19.078521-27.445072-46.490847-39.258119-80.30907-38.256302-36.187177 1.074472-72.500221 1.608637-108.631116-0.167822-39.285748-1.929955-70.977541 9.523911-94.120634 42.34441-22.954805 32.553417-55.67502 44.070728-94.330412 43.310412-32.758078-0.645706-65.537645-0.150426-98.308003-0.081864-10.345626 0.022513-20.800745-0.617054-31.012318 0.630357-27.109428 3.310396-43.039235 19.72218-42.742477 42.798758 0.300852 23.336498 15.927761 40.405245 43.649126 41.260729 53.41863 1.647523 106.96415-0.656963 160.362314 1.285273 39.526225 1.437745 71.366398-10.390651 93.838202-43.12724 22.791076-33.205263 53.417607-46.608527 93.278453-42.632983 18.788925 1.873674 37.923728 0.836041 56.880475 0.305969 24.25645-0.677429 45.822628 7.486508 58.449203 27.278273 33.412994 52.375881 82.32089 63.420425 139.13792 57.910944 11.960403-1.160429 36.201503-0.415462 36.201503-0.536212 31.043017 0 62.089104 0.200568 93.129051-0.074701 18.818601-0.168846 33.249265-7.779174 40.406269-26.260084C928.918481 207.140711 912.082024 179.540096 879.064027 177.462784z" p-id="2488" fill="#86c6ff"></path><path d="M577.061808 716.963115c4.181229 26.720571 21.162995 42.404786 44.261063 41.200354 24.350594-1.27197 37.20946-15.839757 40.84015-38.865169 1.595334-10.118452 1.535983-20.560268 1.549286-30.855752 0.104377-89.439008 0.218988-178.876993-0.118704-268.314978-0.051165-13.631462-0.716314-27.686573-4.086062-40.777729-4.826935-18.753109-19.182898-28.086685-38.33919-28.541033-19.127639-0.453325-34.174334 8.351202-40.080857 26.431999-4.14746 12.691043-4.606925 26.938536-4.771677 40.512692-0.544399 44.713364-0.204661 89.436962-0.208754 134.156466-0.004093 44.718481-0.050142 89.437985 0.028653 134.157489C576.153112 696.377264 575.479777 706.861036 577.061808 716.963115z" p-id="2489" fill="#86c6ff"></path><path d="M403.319765 758.160399c21.724791 0.38988 36.022425-11.344373 41.561581-31.697933 3.095501-11.370978 3.317559-23.757077 3.349281-35.68985 0.248663-91.167373 0.158612-182.334745 0.088004-273.504164-0.00614-8.585539 0.346901-17.339924-1.116427-25.727964-4.732791-27.154453-20.99108-41.872666-44.685735-40.73168-24.588001 1.182942-37.143968 16.211217-40.84629 38.933731-1.919722 11.776208-1.372254 24.003693-1.412163 36.028565-0.140193 43.00342-0.054235 86.006839-0.051165 129.010259 0.00307 44.724621-0.174985 89.450265 0.119727 134.171816 0.078795 11.969613 0.081864 24.288173 2.798742 35.814694C367.958396 745.270834 381.50697 757.768473 403.319765 758.160399z" p-id="2490" fill="#86c6ff"></path></svg>