<?xml version="1.0" standalone="no"?><!DOCTYPE svg PUBLIC "-//W3C//DTD SVG 1.1//EN" "http://www.w3.org/Graphics/SVG/1.1/DTD/svg11.dtd"><svg t="1528421019179" class="icon" style="" viewBox="0 0 1024 1024" version="1.1" xmlns="http://www.w3.org/2000/svg" p-id="1046" xmlns:xlink="http://www.w3.org/1999/xlink" width="32" height="32"><defs><style type="text/css"></style></defs><path d="M472.7 739.8c12.1 10.4 27 15.6 42 15.6 15.1 0 30.2-5.3 42.3-15.9l380-332.4c26.7-23.4 29.4-64 6.1-90.6-23.4-26.7-64-29.5-90.6-6.1L578.9 549.6V126.4c0-35.5-28.8-64.2-64.2-64.2s-64.2 28.8-64.2 64.2v424.4L171.2 310.1c-26.8-23.2-67.4-20.1-90.6 6.7-23.2 26.9-20.2 67.4 6.7 90.6l385.4 332.4zM894.7 835.8H129.3C93.8 835.8 65 864.5 65 900s28.8 64.2 64.2 64.2h765.5c35.5 0 64.2-28.8 64.2-64.2s-28.7-64.2-64.2-64.2z" p-id="1047" fill="#ed3f14"></path></svg>